FFmpeg version SVN-r25716, Copyright (c) 2000-2010 the FFmpeg developers  built on Nov 10 2010 12:23:18 with gcc 4.1.2 20080704 (Red Hat 4.1.2-48)  configuration: --enable-libmp3lame --enable-shared --disable-mmx --arch=x86_64  libavutil     50.33. 0 / 50.33. 0  libavcore      0.12. 1 /  0.12. 1  libavcodec    52.94. 4 / 52.94. 4  libavformat   52.84. 0 / 52.84. 0  libavdevice   52. 2. 2 / 52. 2. 2  libavfilter    1.59. 0 /  1.59. 0  libswscale     0.12. 0 /  0.12. 0Input #0, avi, from '/RAID10/data/converted_video_files/46820.avi':  Duration: 00:00:12.53, start: 0.000000, bitrate: 116678 kb/s    Stream #0.0: Video: msvideo1, rgb555le, 1024x1024, 30 tbr, 30 tbn, 30 tbc[buffer @ 0x759b3b0] w:1024 h:1024 pixfmt:rgb555le[ffsink @ 0x75b7b40] auto-inserting filter 'auto-inserted scaler 0' between the filter 'src' and the filter 'out'[scale @ 0x75f1e00] w:1024 h:1024 fmt:rgb555le -> w:1024 h:1024 fmt:yuv420p flags:0x4Output #0, flv, to '/RAID10/data/converted_video_files/46820.flv':  Metadata:    encoder         : Lavf52.84.0    Stream #0.0: Video: flv, yuv420p, 1024x1024, q=2-31, 600 kb/s, 1k tbn, 24 tbcStream mapping:  Stream #0.0 -> #0.0Press [q] to stop encodingframe=   10 fps=  0 q=15.3 size=     818kB time=0.42 bitrate=16068.8kbits/s dup=0 drop=2    frame=   21 fps= 19 q=31.0 size=     899kB time=0.88 bitrate=8413.9kbits/s dup=0 drop=5    frame=   33 fps= 21 q=31.0 size=     964kB time=1.38 bitrate=5742.1kbits/s dup=0 drop=8    frame=   44 fps= 19 q=31.0 size=     998kB time=1.83 bitrate=4458.8kbits/s dup=0 drop=11    frame=   50 fps= 19 q=31.0 size=    1002kB time=2.08 bitrate=3940.4kbits/s dup=0 drop=12    frame=   61 fps= 20 q=31.0 size=    1037kB time=2.54 bitrate=3340.7kbits/s dup=0 drop=15    frame=   71 fps= 19 q=31.0 size=    1069kB time=2.96 bitrate=2961.5kbits/s dup=0 drop=18    frame=   83 fps= 20 q=31.0 size=    1103kB time=3.46 bitrate=2613.7kbits/s dup=0 drop=20    frame=   94 fps= 20 q=31.0 size=    1137kB time=3.92 bitrate=2377.6kbits/s dup=0 drop=23    frame=  104 fps= 19 q=31.0 size=    1180kB time=4.33 bitrate=2230.6kbits/s dup=0 drop=26    frame=  112 fps= 20 q=31.0 size=    1186kB time=4.67 bitrate=2081.6kbits/s dup=0 drop=28    frame=  123 fps= 20 q=31.0 Lsize=    1220kB time=5.12 bitrate=1950.1kbits/s dup=0 drop=31    video:1218kB audio:0kB global headers:0kB muxing overhead 0.174641%